<svg width="506" height="506" viewBox="0 0 506 506" fill="none" xmlns="http://www.w3.org/2000/svg">
<path d="M503 253C503 391.071 391.071 503 253 503C114.929 503 3 391.071 3 253C3 114.929 114.929 3 253 3C391.071 3 503 114.929 503 253Z" stroke="black" stroke-width="6"/>
<path d="M112.659 195.685V265.287C116.305 261.641 119.702 258.244 122.851 255.095C126 251.781 129.314 248.964 132.794 246.643C136.44 244.158 140.334 242.252 144.477 240.926C148.786 239.435 153.84 238.689 159.641 238.689H286.168V268.021H112.659V340.358H47.0341V166.352H322.709C318.897 170.164 315.251 173.893 311.771 177.538C308.457 181.018 304.894 184.167 301.082 186.984C297.437 189.636 293.376 191.79 288.902 193.447C284.593 195.105 279.456 195.933 273.49 195.933L112.659 195.685Z" stroke="black" stroke-width="6"/>
<path d="M331.089 311.736L331.089 166.814H396.714V311.736H467.489C463.677 315.547 460.114 319.193 456.8 322.673C453.32 326.319 449.757 329.468 446.111 332.119C442.299 334.771 438.239 336.842 433.93 338.334C429.456 339.991 424.236 340.82 418.27 340.82L159.641 340.82C163.452 337.008 167.098 333.279 170.578 329.634C173.893 326.153 177.455 323.088 181.267 320.436C184.913 317.785 188.973 315.63 193.447 313.973C197.756 312.482 202.893 311.736 208.859 311.736L331.089 311.736Z" stroke="black" stroke-width="6"/>
</svg>
