<svg width="524" height="524" viewBox="0 0 524 524" fill="none" xmlns="http://www.w3.org/2000/svg">
<path d="M512 262C512 400.071 400.071 512 262 512C123.929 512 12 400.071 12 262C12 123.929 123.929 12 262 12C400.071 12 512 123.929 512 262Z" stroke="black" stroke-width="3"/>
<path d="M121.659 204.685V274.287C125.305 270.641 128.702 267.244 131.851 264.095C135 260.781 138.314 257.964 141.794 255.643C145.44 253.158 149.334 251.252 153.477 249.926C157.786 248.435 162.84 247.689 168.641 247.689H295.168V277.021H121.659V349.358H56.0341V175.352H331.709C327.897 179.164 324.251 182.893 320.771 186.538C317.457 190.018 313.894 193.167 310.082 195.984C306.437 198.636 302.376 200.79 297.902 202.447C293.593 204.105 288.456 204.933 282.49 204.933L121.659 204.685Z" stroke="black" stroke-width="3"/>
<path d="M340.089 320.736L340.089 175.814H405.714V320.736H476.489C472.677 324.547 469.114 328.193 465.8 331.673C462.32 335.319 458.757 338.468 455.111 341.119C451.299 343.771 447.239 345.842 442.93 347.334C438.456 348.991 433.236 349.82 427.27 349.82L168.641 349.82C172.452 346.008 176.098 342.279 179.578 338.634C182.893 335.153 186.455 332.088 190.267 329.436C193.913 326.785 197.973 324.63 202.447 322.973C206.756 321.482 211.893 320.736 217.859 320.736L340.089 320.736Z" stroke="black" stroke-width="3"/>
</svg>
